<svg width="19" height="30" viewBox="0 0 19 30" fill="none" xmlns="http://www.w3.org/2000/svg">
<path d="M5.42857 6.81817C5.42857 6.45651 5.57156 6.10966 5.82607 5.85393C6.08059 5.5982 6.42578 5.45453 6.78572 5.45453C7.14565 5.45453 7.49085 5.5982 7.74536 5.85393C7.99987 6.10966 8.14286 6.45651 8.14286 6.81817V9.54544C8.14286 9.9071 7.99987 10.2539 7.74536 10.5097C7.49085 10.7654 7.14565 10.9091 6.78572 10.9091C6.42578 10.9091 6.08059 10.7654 5.82607 10.5097C5.57156 10.2539 5.42857 9.9071 5.42857 9.54544V6.81817ZM6.78572 16.3636C6.42578 16.3636 6.08059 16.5073 5.82607 16.763C5.57156 17.0188 5.42857 17.3656 5.42857 17.7273V20.4545C5.42857 20.8162 5.57156 21.163 5.82607 21.4188C6.08059 21.6745 6.42578 21.8182 6.78572 21.8182C7.14565 21.8182 7.49085 21.6745 7.74536 21.4188C7.99987 21.163 8.14286 20.8162 8.14286 20.4545V17.7273C8.14286 17.3656 7.99987 17.0188 7.74536 16.763C7.49085 16.5073 7.14565 16.3636 6.78572 16.3636Z" fill="black"/>
<path fill-rule="evenodd" clip-rule="evenodd" d="M0 4.09091C0 3.00593 0.428953 1.96539 1.19249 1.1982C1.95603 0.431005 2.99162 0 4.07143 0H14.9286C16.0084 0 17.044 0.431005 17.8075 1.1982C18.571 1.96539 19 3.00593 19 4.09091V25.9091C19 26.9941 18.571 28.0346 17.8075 28.8018C17.044 29.569 16.0084 30 14.9286 30H4.07143C2.99162 30 1.95603 29.569 1.19249 28.8018C0.428953 28.0346 0 26.9941 0 25.9091V4.09091ZM4.07143 2.72727H14.9286C15.2885 2.72727 15.6337 2.87094 15.8882 3.12667C16.1427 3.3824 16.2857 3.72925 16.2857 4.09091V12.2727H2.71429V4.09091C2.71429 3.72925 2.85727 3.3824 3.11178 3.12667C3.3663 2.87094 3.71149 2.72727 4.07143 2.72727ZM2.71429 15H16.2857V25.9091C16.2857 26.2708 16.1427 26.6176 15.8882 26.8733C15.6337 27.1291 15.2885 27.2727 14.9286 27.2727H4.07143C3.71149 27.2727 3.3663 27.1291 3.11178 26.8733C2.85727 26.6176 2.71429 26.2708 2.71429 25.9091V15Z" fill="black"/>
</svg>
